<svg xmlns="http://www.w3.org/2000/svg" viewBox="0 0 512 512">
  <defs>
    <linearGradient id="bg" x1="0%" y1="0%" x2="100%" y2="100%">
      <stop offset="0%" stop-color="#1e1040"/>
      <stop offset="100%" stop-color="#0a1628"/>
    </linearGradient>
    <linearGradient id="accent" x1="0%" y1="0%" x2="100%" y2="100%">
      <stop offset="0%" stop-color="#7c3aed"/>
      <stop offset="100%" stop-color="#2563eb"/>
    </linearGradient>
    <filter id="glow">
      <feGaussianBlur stdDeviation="4" result="blur"/>
      <feMerge><feMergeNode in="blur"/><feMergeNode in="SourceGraphic"/></feMerge>
    </filter>
  </defs>
  <rect width="512" height="512" rx="110" fill="url(#bg)"/>
  <rect x="110" y="80" width="292" height="352" rx="32" fill="rgba(255,255,255,0.06)" stroke="rgba(255,255,255,0.15)" stroke-width="2"/>
  <rect x="110" y="80" width="50" height="352" rx="25" fill="url(#accent)" opacity="0.9"/>
  <rect x="190" y="158" width="172" height="16" rx="8" fill="rgba(255,255,255,0.85)" filter="url(#glow)"/>
  <rect x="190" y="200" width="142" height="13" rx="6.5" fill="rgba(255,255,255,0.55)"/>
  <rect x="190" y="232" width="160" height="13" rx="6.5" fill="rgba(255,255,255,0.55)"/>
  <rect x="190" y="264" width="120" height="13" rx="6.5" fill="rgba(255,255,255,0.55)"/>
  <rect x="190" y="304" width="150" height="13" rx="6.5" fill="rgba(255,255,255,0.4)"/>
  <rect x="190" y="336" width="110" height="13" rx="6.5" fill="rgba(255,255,255,0.4)"/>
  <circle cx="194" cy="368" r="14" fill="#7c3aed" opacity="0.9"/>
  <circle cx="234" cy="368" r="14" fill="#2563eb" opacity="0.75"/>
  <circle cx="274" cy="368" r="14" fill="#06b6d4" opacity="0.6"/>
</svg>
